<?xml version="1.0" encoding="UTF-8"?>
<svg width="141px" height="53px" viewBox="0 0 141 53" version="1.1" xmlns="http://www.w3.org/2000/svg" xmlns:xlink="http://www.w3.org/1999/xlink">
    <!-- Generator: Sketch 64 (93537) - https://sketch.com -->
    <title>Group 6</title>
    <desc>Created with Sketch.</desc>
    <g id="Design" stroke="none" stroke-width="1" fill="none" fill-rule="evenodd">
        <g id="Homepage" transform="translate(-192.000000, -4168.000000)">
            <g id="icons" transform="translate(192.000000, 4168.000000)">
                <g id="Group-6">
                    <g id="Group" transform="translate(-0.000000, 0.474227)">
                        <path d="M42.8814433,18.7777778 L42.8955769,18.7777778 L43.0661722,18.7777778 L43.0661722,18.781951 C51.1719265,18.8784257 57.7167838,25.3027065 57.7167838,33.2222222 L75.5876289,33.2222222 C75.5876289,25.3027065 69.0427716,18.8784257 60.9370172,18.781951 L60.9370172,18.7777778 L60.766422,18.7777778 L60.7522884,18.7777778 L42.8814433,18.7777778 Z" id="Fill-3" fill="#636463"></path>
                        <path d="M43.0587724,15.1617573 L43.0587724,15.1659303 L42.8881396,15.1659303 C42.8861555,15.1659303 42.8836754,15.1661757 42.8814433,15.1664212 L60.7490259,15.1659303 L60.7490259,15.1666667 C60.7539862,15.1666667 60.7589465,15.1659303 60.7629147,15.1659303 L60.9335474,15.1659303 L60.9335474,15.1617573 C69.0413323,15.0652875 75.5876289,8.64133415 75.5876289,0.722222222 L57.7126058,0.722222222 C57.7126058,8.64133415 51.1663093,15.0652875 43.0587724,15.1617573" id="Fill-5" fill="#636463"></path>
                        <line x1="42.8814433" y1="15.1669145" x2="42.8814433" y2="15.1664189" id="Fill-7" fill="#000000"></line>
                        <path d="M45.0618557,52 L62.9454164,52 C70.2137767,50.9457058 75.5876289,44.7026639 75.5876289,37.5555556 L57.70382,37.5555556 C57.70382,44.7026639 52.3302159,50.9457058 45.0618557,52" id="Fill-9" fill="#636463"></path>
                        <path d="M34.8865979,0.722222222 L12.4989948,0.722222222 C5.3125205,1.77651644 0,8.01857642 0,15.1666667 L22.3876031,15.1661757 C22.3878484,8.01833095 27.7006142,1.77651644 34.8865979,0.722222222" id="Fill-11" fill="#000000"></path>
                        <path d="M38.5243574,15.1665428 L38.5168797,15.1665428 L38.5168797,15.1667906 C38.5193723,15.1667906 38.5216156,15.1667906 38.5243574,15.1665428" id="Fill-13" fill="#000000"></path>
                        <path d="M12.4989069,33.2222222 L34.8865979,33.2222222 C27.7006648,32.167928 22.3879363,25.9261135 22.387691,18.7780232 L0,18.7777778 C0,25.925868 5.31272845,32.1676825 12.4989069,33.2222222" id="Fill-15" fill="#000000"></path>
                        <path d="M37.7938144,37.5607104 L32.9698851,37.5555556 L15.0399005,37.5555556 L15.025572,37.5555556 L14.8526244,37.5555556 L14.8526244,37.5607104 C6.63510234,37.6571802 0,44.0808881 0,52 L22.94119,52 C22.94119,44.0808881 29.5762923,37.6571802 37.7938144,37.5607104" id="Fill-17" fill="#000000"></path>
                        <path d="M58.1443299,33.2222222 C58.1443299,25.3031103 51.5689329,18.874984 43.4253553,18.7785142 L43.253964,18.7785142 L43.2397644,18.7785142 L23.257732,18.7780232 L23.257732,18.7777778 C23.257732,25.925868 28.6528209,32.1676825 35.9506522,33.2222222 L58.1443299,33.2222222 Z" id="Fill-19" fill="#B4B5B4"></path>
                        <path d="M37.9769557,37.5607104 L37.9769557,37.5607104 C29.833129,37.6571802 23.257732,44.0808881 23.257732,52 L45.4524061,52 C52.74949,50.9457058 58.1443299,44.7029094 58.1443299,37.5555556 L37.9769557,37.5607104 Z" id="Fill-21" fill="#B4B5B4"></path>
                        <path d="M43.2397644,15.1659302 L43.2397644,15.1664212 L43.2472379,15.1664212 C43.2494799,15.1661757 43.2519711,15.1659302 43.253964,15.1659302 L43.4253553,15.1659302 C51.5689329,15.0694588 58.1443299,8.64122326 58.1443299,0.722222222 L35.9506522,0.722222222 C28.6528209,1.77653436 23.257732,8.01870042 23.257732,15.1666667 L23.257732,15.1664212 L43.2397644,15.1659302 Z" id="Fill-23" fill="#B4B5B4"></path>
                        <path d="M140.984532,23.8333333 C140.97608,23.8326603 140.969119,23.8387658 140.967378,23.8470694 C140.967378,23.8470694 140.108213,26.4548817 136.822452,26.4548817 L87.7602711,26.4504857 C84.1451133,26.4504857 83.637967,30.4765004 83.5824742,31.7603803 C83.5817832,31.7694166 83.588744,31.7772317 83.5981908,31.7777778 C83.6066433,31.7784528 83.6138527,31.772103 83.6153443,31.7642879 C83.6153443,31.7642879 84.4745099,29.1559871 87.7602711,29.1559871 L136.822452,29.1608716 C140.437361,29.1608716 140.944507,25.1348569 141,23.850977 C141.000691,23.842185 140.99373,23.8341256 140.984532,23.8333333" id="Fill-25" fill="#000000"></path>
                        <path d="M90.8281283,47.1791232 C90.7234906,46.0069195 90.3014928,45.0129142 89.5330827,44.1307101 L86.0490162,40.0965914 C85.4014934,39.3427878 85.0341535,38.5640852 84.9669392,37.777083 C84.8834752,36.8702241 85.2596786,36.0998211 86.0490162,35.5530206 C86.487756,35.2508156 87.1603918,35.1141155 88.1585125,35.1141155 L89.1610649,35.1141155 L89.1610649,34.6666667 L87.5528448,34.6666667 C86.1701498,34.6666667 85.0715769,35.0228193 84.2027146,35.7561179 C83.191545,36.6009736 82.7574831,37.6613761 82.8741849,39.0073842 C82.9411531,39.7611879 83.2043477,40.4112458 83.6805108,40.9870952 L87.6114419,45.7999164 C88.3131301,46.6489219 88.7100148,47.5269762 88.7895394,48.4091803 C88.8688179,49.3121335 88.5723854,50.1032856 87.9329874,50.6915844 C87.3147632,51.2627957 86.4124168,51.5530394 85.2552468,51.5530394 L83.6846963,51.5530394 L83.6763253,52 L85.556111,52 C87.1768876,52 88.4721794,51.5984433 89.4035782,50.8114411 C90.4979655,49.8962825 90.9618183,48.7113853 90.8281283,47.1791232" id="Fill-27" fill="#000000"></path>
                        <polygon id="Fill-29" fill="#000000" points="101.025773 34.6666667 93.7623268 34.6666667 93.757732 35.0898244 96.2874555 35.0898244 96.2785211 52 98.5093237 52 98.4919653 35.0898244 101.025773 35.0898244"></polygon>
                        <path d="M109.15485,42.1118962 C108.855484,42.4145359 108.444162,42.5683003 107.941218,42.5683003 L105.597001,42.5683003 L105.60533,35.0898244 L107.720735,35.0898244 C108.232009,35.0898244 108.689388,35.2641234 109.042649,35.5997649 C109.395911,35.9358954 109.59557,36.3754319 109.611984,36.873394 L109.611984,36.8939285 L109.641136,40.6769245 C109.645301,41.2990715 109.483369,41.7843217 109.15485,42.1118962 M111.761196,50.2499213 L111.740373,49.9969067 L111.719549,44.3100675 C111.669818,43.7255671 111.436842,43.2774746 111.017191,42.982902 L110.402045,42.5516771 L110.942227,42.0287803 C111.686232,41.3029829 111.973104,39.6814893 111.765116,37.3297981 C111.686232,36.4336131 111.287159,35.7701526 110.547563,35.3015255 C109.865538,34.8825236 108.996838,34.6666667 107.957631,34.6666667 L102.483791,34.6666667 L102.479381,35.0898244 L103.464447,35.0898244 L103.481106,52 L105.597001,52 L105.592591,43.0119926 L108.037005,43.0119926 C108.917954,43.0119926 109.491698,43.5634911 109.574747,44.4887667 L109.59557,44.7664716 L109.624723,50.0176856 L109.620313,50.0465317 C109.616393,50.11278 109.616393,50.1795172 109.624723,50.245521 C109.695277,51.0627459 110.011057,52 111.835915,52 L112.654639,52 L112.654639,51.4526573 C112.135281,51.2742026 111.815092,50.8512893 111.761196,50.2499213" id="Fill-31" fill="#000000"></path>
                        <path d="M119.316884,35.1141155 L122.098939,35.1141155 L122.103093,34.6666667 L118.135397,34.6666667 C117.219041,34.6666667 116.460299,34.9813211 115.80932,35.6318673 C115.158342,36.2819253 114.839206,37.0440285 114.835052,37.9555255 L114.843115,48.7113853 C114.839206,49.626788 115.150033,50.3847414 115.797102,51.0352876 C116.447837,51.6811958 117.206579,52 118.11878,52 L122.090875,52 L122.094784,51.5776942 L119.31273,51.5776942 C118.653443,51.5776942 118.085547,51.3416424 117.625414,50.8775942 C117.165038,50.4096404 116.937048,49.8464846 116.949511,49.2044822 L116.961973,43.5551049 L121.191136,43.5551049 L121.186738,43.1076561 L116.966127,43.1076561 L116.953665,37.4748781 C116.945357,36.8411753 117.17359,36.2819253 117.633478,35.8139714 C118.089945,35.3501674 118.657841,35.1141155 119.316884,35.1141155" id="Fill-33" fill="#000000"></path>
                        <path d="M128.765582,35.1141155 L131.551546,35.1141155 L131.551546,34.6666667 L127.58385,34.6666667 C126.667739,34.6666667 125.908997,34.9813211 125.258018,35.6318673 C124.60704,36.2819253 124.287904,37.0440285 124.283505,37.9555255 L124.291813,48.7113853 C124.287904,49.626788 124.598731,50.3847414 125.245556,51.0352876 C125.896535,51.6811958 126.655033,52 127.571388,52 L131.539328,52 L131.543482,51.5776942 L128.761428,51.5776942 C128.102141,51.5776942 127.534245,51.3416424 127.073868,50.8775942 C126.613736,50.4096404 126.385746,49.8464846 126.398209,49.2044822 L126.410427,43.5551049 L130.63959,43.5551049 L130.635435,43.1076561 L126.414825,43.1076561 L126.402363,37.4748781 C126.394055,36.8411753 126.622044,36.2819253 127.082176,35.8139714 C127.538399,35.3501674 128.106295,35.1141155 128.765582,35.1141155" id="Fill-35" fill="#000000"></path>
                        <polygon id="Fill-37" fill="#000000" points="141 34.6666667 133.736554 34.6666667 133.731959 35.0898244 136.261516 35.0898244 136.252836 52 138.483717 52 138.466358 35.0898244 141 35.0898244"></polygon>
                        <path d="M92.2777215,14.5979104 C92.1543271,13.2303057 91.655661,12.0658994 90.7471219,11.0411919 L86.6298191,6.33500805 C85.8645193,5.45572686 85.4299674,4.54706159 85.3508423,3.62893366 C85.2523812,2.57060881 85.6966011,1.67190425 86.6298191,1.03392112 C87.1529097,0.681312186 87.9428884,0.521940914 89.1228952,0.521940914 L90.307736,0.521940914 L90.307736,0 L88.4069531,0 C86.772804,0 85.4744912,0.415610394 84.4476461,1.27073687 C83.2526284,2.2565976 82.7394603,3.49371709 82.8776111,5.06402215 C82.9564818,5.94355236 83.2676393,6.69732867 83.8304196,7.37390952 L88.4761558,12.9887586 C89.3055698,13.9793507 89.7744686,15.0038091 89.8683501,16.0329989 C89.9619772,17.0910748 89.6116388,18.0094517 88.8562615,18.7002266 C88.1258174,19.3623644 87.0592826,19.7005303 85.6915127,19.7005303 L83.8352536,19.7005303 L83.8304196,20.2222222 L86.0471939,20.2222222 C87.9627332,20.2222222 89.4933329,19.7538201 90.5990486,18.8356922 C91.8876934,17.7676556 92.4354628,16.3856079 92.2777215,14.5979104" id="Fill-39" fill="#000000"></path>
                        <polygon id="Fill-41" fill="#000000" points="102.479381 0 94.4845361 0 94.4845361 0.493760174 97.2637282 0.493760174 97.2543922 20.2222222 99.7097711 20.2222222 99.6903619 0.493760174 102.479381 0.493760174"></polygon>
                        <path d="M112.388438,18.932062 C111.865293,19.4589832 111.223814,19.7296654 110.479066,19.7296654 C109.729216,19.7296654 109.083121,19.4540029 108.559732,18.9126386 C108.036586,18.366792 107.777079,17.7143659 107.791172,16.9605895 L107.796032,3.27134437 C107.810125,2.52229939 108.079109,1.8748536 108.592778,1.33846966 C109.116166,0.797354393 109.752543,0.521940914 110.48344,0.521940914 C111.214337,0.521940914 111.84634,0.797354393 112.360252,1.343201 C112.869304,1.87958493 113.128812,2.52727974 113.142662,3.26163268 L113.161858,16.9752816 C113.175708,17.7337892 112.916686,18.3959271 112.388438,18.932062 M114.373378,1.12605764 C113.543586,0.36705196 112.468623,0 111.087256,0 L109.85654,0 C108.475173,0 107.399967,0.36705196 106.579652,1.12107729 C105.778046,1.86016156 105.386598,2.74467212 105.386598,3.83661435 L105.396074,16.3856079 C105.391215,17.4728188 105.76857,18.3426373 106.546606,19.0481042 C107.385874,19.8404782 108.460837,20.2222222 109.837587,20.2222222 L111.101107,20.2222222 C112.501669,20.2222222 113.581249,19.8404782 114.406667,19.0578159 C115.170367,18.352349 115.538246,17.4777991 115.54262,16.3856079 L115.561856,3.83163399 C115.566432,2.74467212 115.174984,1.86016156 114.373378,1.12605764" id="Fill-43" fill="#000000"></path>
                        <path d="M129.123239,17.8884292 L129.108378,3.91854114 C129.113502,2.66722764 128.626153,1.71523331 127.616862,1.00976642 C126.672142,0.337916899 125.464017,0 124.01683,0 L117.742268,0 L117.742268,0.521691897 L118.950393,0.521691897 L118.970379,20.2222222 L121.530886,20.2222222 L121.526017,0.681063168 L124.012218,0.637734104 C124.524165,0.637734104 125.250065,0.806817062 125.871679,1.5991911 C126.32905,2.17915312 126.552739,2.96206449 126.542746,3.92825283 L126.527885,17.8884292 C126.523016,18.6663602 126.766691,19.2413418 127.278639,19.6469915 C127.76112,20.0337159 128.387346,20.2222222 129.207795,20.2222222 L130.092814,20.2222222 L130.097938,19.5506217 C129.481192,19.2943826 129.128364,18.7096892 129.123239,17.8884292" id="Fill-45" fill="#000000"></path>
                        <path d="M137.656821,0.521940914 L141,0.521940914 L141,0 L136.238937,0 C135.144116,0 134.233645,0.36705196 133.452655,1.12605764 C132.671409,1.88456529 132.28835,2.77355816 132.278351,3.83686336 L132.28835,16.3856079 C132.283478,17.4533954 132.656538,18.3376569 133.437784,19.0966626 C134.213646,19.8504389 135.129245,20.2222222 136.22381,20.2222222 L140.990257,20.2222222 L140.990257,19.7296654 L137.651693,19.7296654 C136.865575,19.7296654 136.184068,19.4540029 135.631786,18.9128876 C135.074632,18.366792 134.800798,17.7146149 134.815926,16.9605895 L134.835669,10.3698404 L139.910563,10.3698404 L139.900563,9.8478995 L134.835669,9.8478995 L134.825669,3.2760757 C134.810798,2.53699143 135.084631,1.88456529 135.636657,1.33846966 C136.18894,0.797354393 136.870703,0.521940914 137.656821,0.521940914" id="Fill-47" fill="#000000"></path>
                    </g>
                </g>
            </g>
        </g>
    </g>
</svg>