<?xml version="1.0" encoding="UTF-8"?>
<svg width="182px" height="45px" viewBox="0 0 182 45" version="1.1" xmlns="http://www.w3.org/2000/svg" xmlns:xlink="http://www.w3.org/1999/xlink">
    <!-- Generator: Sketch 64 (93537) - https://sketch.com -->
    <title>logo 2</title>
    <desc>Created with Sketch.</desc>
    <g id="Design" stroke="none" stroke-width="1" fill="none" fill-rule="evenodd">
        <g id="Homepage" transform="translate(-744.000000, -4173.000000)" fill="#000000" fill-rule="nonzero">
            <g id="icons" transform="translate(192.000000, 4168.000000)">
                <g id="logo-2" transform="translate(552.000000, 4.000000)">
                    <g id="logo" transform="translate(0.000000, 0.336364)">
                        <path d="M182,3.62191958 C182,5.25809845 180.759091,6.53858625 179.104545,6.53858625 C177.518939,6.53858625 176.209091,5.25809845 176.209091,3.62191958 C176.209091,1.98574072 177.518939,0.705252918 179.104545,0.705252918 C180.690152,0.705252918 182,1.98574072 182,3.62191958 L182,3.62191958 Z M176.898485,3.62191958 C176.898485,4.90240739 177.863636,5.89834235 179.104545,5.89834235 C180.345455,5.89834235 181.241667,4.90240739 181.241667,3.62191958 C181.241667,2.34143178 180.345455,1.27435861 179.104545,1.27435861 C177.863636,1.27435861 176.898485,2.34143178 176.898485,3.62191958 L176.898485,3.62191958 Z M178.62197,5.11582202 L178.001515,5.11582202 L178.001515,2.19915536 C178.277273,2.19915536 178.62197,2.12801715 179.104545,2.12801715 C179.656061,2.12801715 179.862879,2.19915536 180.069697,2.34143178 C180.207576,2.4837082 180.345455,2.69712284 180.345455,2.98167568 C180.345455,3.33736674 180.069697,3.55078137 179.793939,3.6930578 L179.793939,3.76419601 C180.069697,3.83533422 180.207576,4.04874885 180.276515,4.47557812 C180.345455,4.90240739 180.414394,5.04468381 180.483333,5.18696024 L179.793939,5.18696024 C179.725,5.04468381 179.656061,4.83126918 179.587121,4.47557812 C179.518182,4.19102528 179.380303,4.04874885 179.035606,4.04874885 L178.759848,4.04874885 L178.759848,5.11582202 L178.62197,5.11582202 Z M178.690909,3.47964316 L178.966667,3.47964316 C179.311364,3.47964316 179.587121,3.33736674 179.587121,3.05281389 C179.587121,2.76826105 179.380303,2.62598463 178.966667,2.62598463 C178.828788,2.62598463 178.690909,2.62598463 178.62197,2.69712284 L178.62197,3.47964316 L178.690909,3.47964316 Z" id="XMLID_31_"></path>
                        <path d="M127.556982,9.87191958 L128.062815,11.1589018 L120.475329,28.9621563 L119.391402,31.3931227 C119.174617,31.9651149 118.813308,32.3941089 118.451999,32.680105 C118.018428,32.966101 117.440334,33.1805981 116.645455,33.2520971 L116.645455,34.0385863 L125.750438,34.0385863 L125.750438,33.2520971 C124.666512,33.2520971 123.871632,33.1805981 123.510323,33.0376001 C123.149014,32.894602 122.932229,32.537107 122.932229,32.0366139 C122.932229,31.8221168 123.221276,31.0356277 123.727108,29.8201444 L129.941621,15.0198486 L134.999945,27.0316829 C135.867087,29.1766533 136.300657,30.5351346 136.300657,31.1786257 C136.300657,31.8936158 136.083872,32.3941089 135.578039,32.751604 C135.072207,33.1090991 134.494113,33.2520971 133.771495,33.2520971 L133.771495,34.0385863 L140.636364,34.0385863 L140.636364,33.2520971 C139.624699,33.1090991 138.829819,32.751604 138.323987,32.1796119 C137.818154,31.6076198 137.24006,30.4636356 136.517442,28.6761602 C136.445181,28.5331622 136.156134,27.8181721 135.722563,26.6741878 L130.591977,14.4478565 L129.146742,11.0159038" id="XMLID_30_"></path>
                        <path d="M128.066949,10.7052529 C127.784778,9.87336384 125.950669,5.64459434 125.315786,4.5354089 C124.680902,3.35689937 124.116561,2.66365846 123.693305,2.3863621 C123.55222,2.52501028 123.411135,2.73298255 123.270049,3.01027891 C123.058421,3.21825119 122.917336,3.42622346 122.776251,3.56487164 C122.564623,3.70351982 122.352995,3.842168 122.141367,3.98081618 C121.929739,4.05014027 121.647569,4.11946436 121.294856,4.11946436 C120.8716,4.11946436 120.589429,3.91149209 120.307259,3.56487164 C120.025088,3.21825119 119.954545,2.87163073 119.954545,2.31703801 C119.954545,1.83176938 120.236716,1.48514893 120.659972,1.13852848 C121.15377,0.791908031 121.718111,0.653259851 122.49408,0.722583941 C122.917336,0.722583941 123.270049,0.861232121 123.622763,0.999880301 C123.975476,1.13852848 124.398732,1.48514893 124.821987,1.90109347 C125.245243,2.3863621 125.739042,3.01027891 126.162297,3.77284391 C126.585553,4.5354089 128.560747,8.83350249 129.054545,10.2199843" id="XMLID_29_"></path>
                        <path d="M150.287879,23.3023899 C150.57815,23.5171139 151.086124,24.089711 151.88437,25.0201813 C152.682616,25.9506517 153.408293,26.9526967 154.133971,28.0263163 C156.45614,31.3187499 158.125199,33.3228398 159.213716,34.0385863 L165.454545,34.0385863 L165.454545,33.2512652 C164.075758,33.1796905 162.914673,32.8218173 161.898724,32.1060709 C160.882775,31.3903245 159.503987,29.887257 157.76236,27.5252938 C155.585327,24.6623081 154.061404,22.9445167 153.045455,22.5150689 C155.222488,22.2287703 156.891547,21.5845985 157.980064,20.5109789 C159.141148,19.4373593 159.649123,18.1490157 159.649123,16.6459482 C159.649123,15.3576047 159.213716,14.283985 158.342903,13.3535147 C157.472089,12.4230443 156.383573,11.7788726 154.932217,11.3494247 C153.553429,10.9199768 151.739234,10.7052529 149.489633,10.7052529 C148.183413,10.7052529 146.441786,10.7768276 144.192185,10.8484022 L140.854067,10.9915515 L140.854067,11.7788726 L141.216906,11.7788726 C142.37799,11.7788726 143.176236,11.8504472 143.539075,12.0651711 C143.901914,12.279895 144.119617,12.6377683 144.192185,13.1387908 C144.264753,13.6398132 144.337321,14.8565822 144.337321,16.7175229 L144.337321,28.0263163 C144.337321,29.9588317 144.264753,31.1756006 144.192185,31.6766231 C144.119617,32.1776456 143.829346,32.6070934 143.466507,32.8218173 C143.103668,33.0365413 142.37799,33.1796905 141.362041,33.1796905 L140.636364,33.1796905 L140.636364,33.9670116 L151.811802,33.9670116 L151.811802,33.1796905 L150.940989,33.1796905 C149.852472,33.1796905 149.199362,33.0365413 148.763955,32.7502427 C148.401116,32.4639441 148.183413,32.0344963 148.110845,31.5334738 C148.038278,30.9608766 147.96571,29.8156824 147.96571,27.9547417 L147.96571,22.8729421 L147.96571,22.085621 L147.96571,11.7072979 C148.546252,11.6357233 148.981659,11.6357233 149.417065,11.6357233 C152.174641,11.6357233 153.988836,12.1367458 154.787081,13.0672161 C155.585327,14.0692611 156.020734,15.3576047 156.020734,16.9322468 C156.020734,17.8627171 155.875598,18.6500382 155.657895,19.29421 C155.440191,19.9383818 155.077352,20.4394042 154.641946,20.7972775 C154.206539,21.1551507 153.698565,21.5130239 152.972887,21.6561732 C152.319777,21.8708971 151.521531,22.0140464 150.57815,22.0140464 C150.505582,22.0140464 150.360447,22.0140464 150.287879,22.0140464" id="XMLID_28_"></path>
                        <path d="M93.9110635,21.8824618 C92.9979417,21.3729236 91.5931389,20.645012 89.6966552,19.6987268 C87.6596913,18.7524417 86.2548885,17.9517389 85.482247,17.1510361 C84.7096055,16.4231244 84.2881647,15.4768393 84.2881647,14.3849718 C84.2881647,13.5114778 84.5691252,12.6379838 85.2012864,11.9100722 C85.8334477,11.1821605 86.8168096,10.7454136 88.1513722,10.7454136 C89.556175,10.7454136 90.8204974,11.2549517 91.8740995,12.274028 C92.9277015,13.2931043 93.7003431,14.6761365 94.1217839,16.4959156 L94.8241852,16.4959156 L94.8241852,10.3814577 L94.1217839,10.3814577 C94.0515437,11.1093694 93.7705832,11.837281 93.2789022,12.4196103 C92.3657804,11.400534 91.5228988,10.7454136 90.6800172,10.3814577 C89.8371355,10.0902931 88.9240137,9.87191958 88.0108919,9.87191958 C86.3251286,9.87191958 84.9203259,10.4542489 83.7964837,11.5461164 C82.6726415,12.6379838 82.1107204,14.021016 82.1107204,15.6952128 C82.1107204,16.7870802 82.391681,17.8061565 82.8833619,18.7524417 C83.3750429,19.6987268 84.1476844,20.4994296 85.0608062,21.0817589 C85.973928,21.6640883 87.3084906,22.3919999 89.1347341,23.1927027 C91.1716981,24.0661967 92.5765009,24.9396907 93.3491424,25.7403935 C94.1217839,26.5410963 94.4729846,27.4873814 94.4729846,28.7248312 C94.4729846,29.8894899 94.0515437,30.9085662 93.138422,31.8548513 C92.2955403,32.8011365 91.0312178,33.2378834 89.4859348,33.2378834 C85.973928,33.2378834 83.7262436,30.7629838 82.7428816,25.8859758 L81.9,25.8859758 L81.9,33.3834658 L82.7428816,33.3834658 C82.9536021,32.4371806 83.1643225,31.6364778 83.5857633,31.1269397 C85.2715266,33.0923011 87.3084906,34.0385863 89.7668954,34.0385863 C91.9443396,34.0385863 93.6301029,33.3834658 94.8944254,32.146016 C96.1587479,30.9085662 96.7909091,29.2343694 96.7909091,27.2690079 C96.7909091,26.0315581 96.5099485,24.8668995 96.0182676,23.9206144 C95.4563465,23.1927027 94.7539451,22.3919999 93.9110635,21.8824618" id="XMLID_27_"></path>
                        <path d="M114.1584,11.5048375 C115.430725,11.5048375 116.278941,11.5775271 116.773734,11.7229061 C117.268527,11.8682851 117.76332,12.3044222 118.187428,12.9586278 C118.611536,13.6128334 118.96496,14.7758656 119.247699,16.3023453 L119.954545,16.3023453 L119.813176,10.7052529 L97.7595512,10.7052529 L97.6181818,16.3023453 L98.3957135,16.3023453 C98.6077675,14.8485551 98.961191,13.6855229 99.3852992,13.0313173 C99.8094074,12.3044222 100.3042,11.8682851 100.798993,11.7229061 C101.293786,11.5775271 102.283372,11.5048375 103.76775,11.5048375 L107.160616,11.5048375 L107.160616,28.0053568 C107.160616,29.9679736 107.089931,31.2036953 107.019246,31.7125219 C106.877877,32.2213485 106.665823,32.6574855 106.312399,32.8755541 C105.958976,33.0936226 105.252129,33.2390016 104.262543,33.2390016 L103.060903,33.2390016 L103.060903,34.0385863 L114.370455,34.0385863 L114.370455,33.2390016 L113.239499,33.2390016 C112.249914,33.2390016 111.543067,33.0936226 111.189643,32.8028645 C110.83622,32.5121065 110.624166,32.0759694 110.482796,31.4944533 C110.412112,30.9129372 110.341427,29.749905 110.341427,27.8599777 L110.341427,11.5048375 L114.1584,11.5048375 Z" id="XMLID_26_"></path>
                        <path d="M181.217309,24.1389879 C180.655788,23.1927027 179.953886,22.3919999 179.111605,21.8824618 C178.199133,21.3729236 176.79533,20.645012 174.900196,19.6987268 C172.864682,18.7524417 171.460879,17.9517389 170.688788,17.1510361 C169.916696,16.4231244 169.495556,15.4768393 169.495556,14.3849718 C169.495556,13.5114778 169.846506,12.6379838 170.408027,11.9100722 C171.039739,11.1821605 172.022401,10.7454136 173.356013,10.7454136 C174.759816,10.7454136 176.023238,11.2549517 177.076091,12.274028 C178.128943,13.2931043 178.901034,14.6761365 179.322175,16.4959156 L180.024076,16.4959156 L180.024076,10.3814577 L179.322175,10.3814577 C179.251985,11.1093694 178.971224,11.837281 178.479893,12.4196103 C177.567422,11.400534 176.72514,10.7454136 175.882858,10.3814577 C175.040577,10.0902931 174.128105,9.87191958 173.215633,9.87191958 C171.53107,9.87191958 170.127267,10.4542489 169.004225,11.5461164 C167.881182,12.6379838 167.319661,14.021016 167.319661,15.6952128 C167.319661,16.7870802 167.600422,17.8061565 168.091753,18.7524417 C168.583084,19.6987268 169.355175,20.4994296 170.267647,21.0817589 C171.180119,21.6640883 172.583922,22.3919999 174.338675,23.1927027 C176.374189,24.0661967 177.777992,24.9396907 178.550083,25.7403935 C179.322175,26.5410963 179.673126,27.4873814 179.673126,28.7248312 C179.673126,29.8894899 179.251985,30.9085662 178.339513,31.8548513 C177.497231,32.8011365 176.233809,33.2378834 174.689626,33.2378834 C171.180119,33.2378834 168.934035,30.7629838 167.951373,25.8859758 L167.109091,25.8859758 L167.109091,33.3834658 L167.951373,33.3834658 C168.161943,32.4371806 168.372513,31.6364778 168.793654,31.1269397 C170.478218,33.0923011 172.513732,34.0385863 174.970386,34.0385863 C177.146281,34.0385863 178.830844,33.3834658 180.094266,32.146016 C181.357689,30.9085662 181.9894,29.2343694 181.9894,27.2690079 C182.05959,26.1771405 181.77883,25.085273 181.217309,24.1389879" id="XMLID_25_"></path>
                        <path d="M11.2293033,34.0385863 C13.3614495,34.0385863 15.1382381,33.5336111 16.7018119,32.5958002 C18.3364574,31.6579892 19.5446735,30.1430639 20.6818182,28.0510241 L20.1843174,27.6903275 C18.8339581,29.710228 17.4125273,31.0808748 16.2753827,31.7301285 C15.1382381,32.3793823 13.3614495,33.028636 11.8689472,33.028636 C9.59465792,33.028636 7.67572634,32.0908251 6.11215245,30.2152032 C4.54857857,28.3395813 3.83786317,25.670427 3.83786317,22.2077405 C3.83786317,18.528636 4.54857857,15.7152032 5.97000937,13.767442 C7.39144017,11.8196808 9.31037176,10.8097305 11.6557326,10.8097305 C13.6457357,10.8097305 15.3514527,11.386845 16.9150266,12.6132131 C18.4786004,13.8395813 19.473602,16.0037604 19.9711028,19.1057504 L20.6818182,19.1057504 L20.6818182,10.3047554 L19.7578882,10.3047554 C19.6868166,11.3147057 19.4025305,12.3246559 18.9050297,13.3346062 C18.1943143,12.4689345 17.1993127,11.6754022 15.7778819,10.9540091 C14.3564511,10.2326161 12.8639488,9.87191958 11.1582318,9.87191958 C9.09715714,9.87191958 7.17822555,10.3768947 5.47250859,11.3147057 C3.76679163,12.3246559 2.41643236,13.767442 1.4214308,15.7873425 C0.426429241,17.807243 0,19.9714221 0,22.2798798 C0,25.7425664 1.0660731,28.5559992 3.12714777,30.7201783 C5.25929397,32.9564967 7.9600125,34.0385863 11.2293033,34.0385863" id="XMLID_24_"></path>
                        <path d="M68.2781112,36.5385863 L76.9524272,15.9570844 C77.6752868,14.2537877 78.2535746,13.1182566 78.7595763,12.6214617 C79.2655781,12.1246668 79.9884378,11.8407841 81.0727273,11.7698134 L81.0727273,10.7052529 L74.2778464,10.7052529 L74.2778464,11.7698134 C76.0127096,11.7698134 76.8801412,12.1956375 76.8801412,12.9763152 C76.8801412,13.1182566 76.5909974,14.0408756 75.9404237,15.5312602 L71.4586937,26.1058939 L66.1818182,15.0344654 C65.5312445,13.7569928 65.2421006,12.9763152 65.2421006,12.7634031 C65.2421006,12.1956375 66.0372462,11.8407841 67.5552515,11.8407841 L67.5552515,10.7762236 L58.7363636,10.7762236 L58.7363636,11.8407841 C59.7483672,11.8407841 60.4712268,11.9827254 60.9049426,12.3375789 C61.3386584,12.6924324 61.8446602,13.5440808 62.4952339,14.892524 L69.7238305,30.1512236 L67.2661077,35.9708207" id="XMLID_23_"></path>
                        <path d="M67.8363636,37.1391869 C67.2159091,38.6406884 66.1818182,40.9680157 65.6992424,41.7938415 C65.2166667,42.6196673 64.7340909,43.295343 64.3204545,43.7457935 C63.8378788,44.1962439 63.4931818,44.4965442 63.0795455,44.6466944 C62.7348485,44.7968445 62.3212121,44.8719196 61.9765152,44.8719196 C61.2181818,44.8719196 60.5977273,44.6466944 60.1840909,44.271319 C59.7704545,43.8959436 59.5636364,43.4454932 59.5636364,42.9199676 C59.5636364,42.3944421 59.7015152,41.9439917 59.9772727,41.6436914 C60.2530303,41.3433911 60.5977273,41.1181658 60.9424242,41.1181658 C61.2181818,41.1181658 61.4939394,41.1932409 61.769697,41.268316 C61.9765152,41.4184661 62.1833333,41.5686163 62.3901515,41.7938415 C62.5280303,41.9439917 62.6659091,42.1692169 62.8727273,42.4695172 C63.0106061,42.7698175 63.1484848,42.9950427 63.2863636,43.1451929 C63.7689394,42.8448926 64.3204545,42.0941418 65.0098485,40.8929406 C65.6992424,39.6917394 66.7333333,37.4394872 67.0090909,36.5385863" id="XMLID_22_"></path>
                        <path d="M22.3363636,11.5048375 L22.8484848,11.5048375 C24.0190476,11.5048375 24.8238095,11.5775271 25.1896104,11.7955956 C25.5554113,12.0136641 25.7748918,12.3771117 25.8480519,12.8859383 C25.9212121,13.3947649 25.9943723,14.6304866 25.9943723,16.5204139 L25.9943723,28.0053568 C25.9943723,29.9679736 25.9212121,31.2036953 25.8480519,31.7125219 C25.7748918,32.2213485 25.4822511,32.6574855 25.1164502,32.8755541 C24.7506494,33.0936226 24.0190476,33.2390016 22.9948052,33.2390016 L22.3363636,33.2390016 L22.3363636,34.0385863 L33.0909091,34.0385863 L33.0909091,33.2390016 L32.3593074,33.2390016 C31.3350649,33.2390016 30.6034632,33.0936226 30.2376623,32.8028645 C29.8718615,32.5121065 29.652381,32.0759694 29.5792208,31.5671428 C29.5060606,30.9856268 29.4329004,29.8225946 29.4329004,27.9326672 L29.4329004,16.5931034 C29.4329004,14.6304866 29.5060606,13.3947649 29.5792208,12.8859383 C29.7255411,12.3771117 29.9450216,12.0136641 30.3108225,11.7955956 C30.6766234,11.5775271 31.4082251,11.5048375 32.5787879,11.5048375 L33.0909091,11.5048375 L33.0909091,10.7052529 L22.3363636,10.7052529 L22.3363636,11.5048375 Z" id="XMLID_21_"></path>
                        <path d="M34.8872727,10.7052529 L34.7454545,16.3023453 L35.5254545,16.3023453 C35.7381818,14.8485551 36.0927273,13.6855229 36.5181818,13.0313173 C36.9436364,12.3044222 37.44,11.8682851 37.9363636,11.7229061 C38.4327273,11.5775271 39.4254545,11.5048375 40.9145455,11.5048375 L44.3181818,11.5048375 L44.3181818,28.0053568 C44.3181818,29.9679736 44.2472727,31.2036953 44.1763636,31.7125219 C44.0345455,32.2213485 43.8218182,32.6574855 43.4672727,32.8755541 C43.1127273,33.0936226 42.4036364,33.2390016 41.4109091,33.2390016 L40.2763636,33.2390016 L40.2763636,34.0385863 L51.6218182,34.0385863 L51.6218182,33.2390016 L50.4872727,33.2390016 C49.4945455,33.2390016 48.7854545,33.0936226 48.4309091,32.8028645 C48.0763636,32.5121065 47.8636364,32.0759694 47.7218182,31.4944533 C47.6509091,30.9129372 47.58,29.749905 47.58,27.8599777 L47.58,11.5048375 L51.2672727,11.5048375 C52.5436364,11.5048375 53.3945455,11.5775271 53.8909091,11.7229061 C54.3872727,11.8682851 54.8836364,12.3044222 55.3090909,12.9586278 C55.7345455,13.6128334 56.0890909,14.7758656 56.3727273,16.3023453 L57.0818182,16.3023453 L56.94,10.7052529 L34.8872727,10.7052529 Z" id="XMLID_20_"></path>
                        <path d="M86.6924765,41.1967059 L83.6496343,41.1967059 L83.6496343,42.5428598 C83.6496343,42.9915777 83.6496343,43.290723 83.6496343,43.4402957 C83.6496343,43.5898683 83.7257053,43.6646546 83.8017764,43.739441 C83.8778474,43.8142273 84.1060606,43.8142273 84.3342738,43.8142273 L84.4864159,43.8142273 L84.4864159,44.0385863 L81.9,44.0385863 L81.9,43.8142273 L82.0521421,43.8142273 C82.2803553,43.8142273 82.5085684,43.8142273 82.5846395,43.739441 C82.6607106,43.6646546 82.7367816,43.5898683 82.7367816,43.4402957 C82.7367816,43.290723 82.8128527,42.9915777 82.8128527,42.5428598 L82.8128527,39.7757657 C82.8128527,39.3270478 82.8128527,39.0279025 82.7367816,38.8783298 C82.7367816,38.7287572 82.6607106,38.6539709 82.5846395,38.5791845 C82.5085684,38.5043982 82.2803553,38.5043982 82.0521421,38.5043982 L81.9760711,38.5043982 L81.9760711,38.2800392 L84.5624869,38.2800392 L84.5624869,38.5043982 L84.4864159,38.5043982 C84.1821317,38.5043982 84.0299896,38.5043982 83.9539185,38.5791845 C83.8778474,38.6539709 83.8017764,38.7287572 83.8017764,38.8035435 C83.8017764,38.9531162 83.7257053,39.2522615 83.7257053,39.7009794 L83.7257053,40.8227743 L86.7685475,40.8227743 L86.7685475,39.7009794 C86.7685475,39.2522615 86.7685475,38.9531162 86.6924765,38.8035435 C86.6924765,38.6539709 86.6164054,38.5791845 86.5403344,38.5043982 C86.4642633,38.4296119 86.2360502,38.4296119 86.007837,38.4296119 L85.8556949,38.4296119 L85.8556949,38.2052529 L88.5181818,38.2052529 L88.5181818,38.4296119 L88.4421108,38.4296119 C88.1378265,38.4296119 87.9856844,38.4296119 87.9096134,38.5043982 C87.8335423,38.5791845 87.7574713,38.6539709 87.7574713,38.7287572 C87.7574713,38.8783298 87.6814002,39.1774751 87.6814002,39.6261931 L87.6814002,42.3932871 C87.6814002,42.8420051 87.6814002,43.1411504 87.6814002,43.290723 C87.6814002,43.4402957 87.7574713,43.515082 87.8335423,43.5898683 C87.9096134,43.6646546 88.1378265,43.6646546 88.3660397,43.6646546 L88.5181818,43.6646546 L88.5181818,43.8890136 L85.8556949,43.8890136 L85.8556949,43.6646546 L86.083908,43.6646546 C86.3121212,43.6646546 86.4642633,43.6646546 86.6164054,43.5898683 C86.6924765,43.515082 86.7685475,43.4402957 86.7685475,43.290723 C86.7685475,43.1411504 86.8446186,42.8420051 86.8446186,42.3932871 L86.8446186,41.1967059 L86.6924765,41.1967059 Z" id="XMLID_19_"></path>
                        <path d="M99.0436364,42.2204044 L99.2727273,42.2204044 L99.12,44.0385863 L94.3090909,44.0385863 L94.3090909,43.8113135 L94.4618182,43.8113135 C94.7672727,43.8113135 94.92,43.7355559 94.9963636,43.6597984 C95.0727273,43.5840408 95.1490909,43.5082832 95.1490909,43.3567681 C95.1490909,43.2052529 95.1490909,42.9022226 95.1490909,42.4476772 L95.1490909,39.6446469 C95.1490909,39.1901014 95.1490909,38.8870711 95.1490909,38.8113135 C95.1490909,38.6597984 95.0727273,38.5840408 94.9963636,38.5082832 C94.92,38.4325256 94.6909091,38.4325256 94.4618182,38.4325256 L94.4618182,38.2052529 L98.5854545,38.2052529 L98.7381818,39.6446469 L98.5090909,39.6446469 C98.4327273,39.265859 98.28,38.9628287 98.2036364,38.8113135 C98.0509091,38.6597984 97.8981818,38.5082832 97.7454545,38.5082832 C97.5927273,38.4325256 97.2872727,38.4325256 96.8290909,38.4325256 L95.9890909,38.4325256 L95.9890909,40.8567681 L96.6,40.8567681 C96.9054545,40.8567681 97.0581818,40.8567681 97.2109091,40.7810105 C97.2872727,40.7052529 97.3636364,40.6294953 97.44,40.5537378 C97.44,40.4779802 97.5163636,40.2507075 97.5163636,39.9476772 L97.7454545,39.9476772 L97.7454545,41.9173741 L97.5163636,41.9173741 C97.5163636,41.6143438 97.5163636,41.3870711 97.44,41.3113135 C97.3636364,41.2355559 97.2872727,41.1597984 97.2109091,41.0840408 C97.1345455,41.0840408 96.9054545,41.0082832 96.6763636,41.0082832 L96.0654545,41.0082832 L96.0654545,42.3719196 C96.0654545,43.0537378 96.1418182,43.4325256 96.2181818,43.5840408 C96.2945455,43.7355559 96.5236364,43.7355559 96.9054545,43.7355559 L97.3636364,43.7355559 C97.6690909,43.7355559 97.8981818,43.6597984 98.1272727,43.5840408 C98.3563636,43.5082832 98.5090909,43.3567681 98.6618182,43.1294953 C98.8145455,42.9779802 98.8909091,42.6749499 99.0436364,42.2204044" id="XMLID_18_"></path>
                        <path d="M109.2,42.3719196 L109.124793,44.0385863 L104.236364,44.0385863 L104.236364,43.8113135 L104.386777,43.8113135 C104.612397,43.8113135 104.76281,43.8113135 104.913223,43.7355559 C104.98843,43.6597984 105.063636,43.5840408 105.063636,43.4325256 C105.063636,43.2810105 105.138843,42.9779802 105.138843,42.5234347 L105.138843,39.7204044 C105.138843,39.265859 105.138843,38.9628287 105.063636,38.8113135 C105.063636,38.6597984 104.98843,38.5840408 104.913223,38.5082832 C104.838017,38.4325256 104.612397,38.4325256 104.386777,38.4325256 L104.236364,38.4325256 L104.236364,38.2052529 L107.019008,38.2052529 L107.019008,38.4325256 L106.793388,38.4325256 C106.492562,38.4325256 106.342149,38.4325256 106.266942,38.5082832 C106.191736,38.5840408 106.116529,38.6597984 106.116529,38.7355559 C106.116529,38.8870711 106.041322,39.1901014 106.041322,39.6446469 L106.041322,42.6749499 C106.041322,43.1294953 106.041322,43.3567681 106.041322,43.4325256 C106.041322,43.5082832 106.116529,43.5840408 106.191736,43.6597984 C106.266942,43.7355559 106.492562,43.7355559 106.868595,43.7355559 L107.319835,43.7355559 C107.695868,43.7355559 107.921488,43.7355559 108.071901,43.6597984 C108.222314,43.5840408 108.372727,43.4325256 108.52314,43.2810105 C108.673554,43.0537378 108.823967,42.7507075 108.97438,42.296162 L109.2,42.296162 L109.2,42.3719196 Z" id="XMLID_17_"></path>
                        <path d="M115.059848,38.4355161 L115.059848,38.2052529 L117.472727,38.2052529 L117.472727,38.4355161 L117.334848,38.4355161 C117.059091,38.4355161 116.921212,38.4355161 116.852273,38.5122705 C116.783333,38.5890248 116.714394,38.6657792 116.714394,38.7425336 C116.714394,38.8960424 116.645455,39.2030599 116.645455,39.6635863 L116.645455,42.5034985 C116.645455,42.9640248 116.645455,43.2710424 116.645455,43.4245512 C116.645455,43.5780599 116.714394,43.6548143 116.783333,43.7315687 C116.852273,43.8083231 117.059091,43.8083231 117.265909,43.8083231 L117.403788,43.8083231 L117.403788,44.0385863 L114.990909,44.0385863 L114.990909,43.8083231 L115.128788,43.8083231 C115.335606,43.8083231 115.542424,43.8083231 115.611364,43.7315687 C115.680303,43.6548143 115.749242,43.5780599 115.749242,43.4245512 C115.749242,43.2710424 115.749242,42.9640248 115.749242,42.5034985 L115.749242,39.6635863 C115.749242,39.2030599 115.749242,38.8960424 115.749242,38.7425336 C115.749242,38.5890248 115.680303,38.5122705 115.611364,38.4355161 C115.542424,38.3587617 115.335606,38.3587617 115.059848,38.3587617 L115.059848,38.3587617 L115.059848,38.4355161 Z" id="XMLID_16_"></path>
                        <path d="M123.263636,41.0490029 C123.263636,40.1740029 123.542716,39.5177529 124.100876,39.0073363 C124.659036,38.4969196 125.356736,38.2052529 126.124206,38.2052529 C126.961446,38.2052529 127.659146,38.4969196 128.217306,39.0073363 C128.775465,39.5177529 129.054545,40.2469196 129.054545,41.1219196 C129.054545,41.9969196 128.775465,42.6531696 128.287076,43.2365029 C127.728916,43.7469196 127.031216,44.0385863 126.193976,44.0385863 C125.356736,44.0385863 124.659036,43.7469196 124.100876,43.2365029 C123.542716,42.6531696 123.263636,41.9240029 123.263636,41.0490029 M124.170646,41.1219196 C124.170646,41.9969196 124.310186,42.6531696 124.659036,43.1635863 C125.007886,43.6010863 125.496276,43.8198363 126.193976,43.8198363 C126.821906,43.8198363 127.240526,43.6010863 127.589376,43.1635863 C127.938226,42.7260863 128.077766,42.0698363 128.077766,41.1948363 C128.077766,40.3198363 127.938226,39.6635863 127.589376,39.2260863 C127.240526,38.7885863 126.752136,38.5698363 126.124206,38.5698363 C125.496276,38.5698363 125.007886,38.7885863 124.659036,39.2260863 C124.379956,39.5906696 124.170646,40.2469196 124.170646,41.1219196" id="XMLID_13_"></path>
                        <path d="M137.189394,41.3113135 L137.189394,42.5234347 C137.189394,42.9779802 137.189394,43.2810105 137.189394,43.4325256 C137.189394,43.5840408 137.258333,43.6597984 137.327273,43.7355559 C137.396212,43.8113135 137.60303,43.8113135 137.809848,43.8113135 L138.016667,43.8113135 L138.016667,44.0385863 L135.672727,44.0385863 L135.672727,43.8113135 L135.810606,43.8113135 C136.017424,43.8113135 136.155303,43.8113135 136.293182,43.7355559 C136.362121,43.6597984 136.431061,43.5840408 136.431061,43.4325256 C136.431061,43.2810105 136.431061,42.9779802 136.431061,42.5234347 L136.431061,39.7204044 C136.431061,39.265859 136.431061,38.9628287 136.431061,38.8113135 C136.431061,38.6597984 136.362121,38.5840408 136.293182,38.5082832 C136.224242,38.4325256 136.017424,38.4325256 135.741667,38.4325256 L135.672727,38.4325256 L135.672727,38.2052529 L136.362121,38.2052529 C136.913636,38.2052529 137.327273,38.2052529 137.60303,38.2052529 C138.154545,38.2052529 138.568182,38.2810105 138.843939,38.3567681 C139.119697,38.4325256 139.395455,38.5840408 139.533333,38.8870711 C139.740152,39.1143438 139.809091,39.4173741 139.809091,39.796162 C139.809091,40.0991923 139.740152,40.4022226 139.602273,40.6294953 C139.464394,40.8567681 139.257576,41.0840408 139.050758,41.1597984 C138.843939,41.3113135 138.361364,41.3113135 137.809848,41.3113135 L137.189394,41.3113135 L137.189394,41.3113135 Z M137.189394,41.0840408 L137.534091,41.0840408 C137.809848,41.0840408 138.085606,41.0840408 138.292424,41.0082832 C138.499242,40.9325256 138.637121,40.7810105 138.775,40.5537378 C138.912879,40.326465 138.981818,40.0991923 138.981818,39.796162 C138.981818,39.3416166 138.843939,38.9628287 138.637121,38.7355559 C138.430303,38.5082832 138.085606,38.4325256 137.60303,38.4325256 C137.396212,38.4325256 137.327273,38.4325256 137.189394,38.4325256 L137.189394,41.0840408 Z" id="XMLID_10_"></path>
                        <path d="M145.6,41.0490029 C145.6,40.1740029 145.87908,39.5177529 146.43724,39.0073363 C146.9954,38.4969196 147.6931,38.2052529 148.46057,38.2052529 C149.297809,38.2052529 149.995509,38.4969196 150.553669,39.0073363 C151.111829,39.5177529 151.390909,40.2469196 151.390909,41.1219196 C151.390909,41.9969196 151.111829,42.6531696 150.623439,43.2365029 C150.065279,43.7469196 149.367579,44.0385863 148.53034,44.0385863 C147.6931,44.0385863 146.9954,43.7469196 146.43724,43.2365029 C145.80931,42.6531696 145.6,41.9240029 145.6,41.0490029 M146.43724,41.1219196 C146.43724,41.9969196 146.57678,42.6531696 146.92563,43.1635863 C147.27448,43.6010863 147.76287,43.8198363 148.46057,43.8198363 C149.088499,43.8198363 149.507119,43.6010863 149.855969,43.1635863 C150.204819,42.7260863 150.344359,42.0698363 150.344359,41.1948363 C150.344359,40.3198363 150.204819,39.6635863 149.855969,39.2260863 C149.507119,38.7885863 149.018729,38.5698363 148.3908,38.5698363 C147.76287,38.5698363 147.27448,38.7885863 146.92563,39.2260863 C146.64655,39.5906696 146.43724,40.2469196 146.43724,41.1219196" id="XMLID_7_"></path>
                        <path d="M162.972727,42.3719196 L162.896364,44.0385863 L158.009091,44.0385863 L158.009091,43.8113135 L158.161818,43.8113135 C158.390909,43.8113135 158.543636,43.8113135 158.696364,43.7355559 C158.772727,43.6597984 158.849091,43.5840408 158.849091,43.4325256 C158.849091,43.2810105 158.925455,42.9779802 158.925455,42.5234347 L158.925455,39.7204044 C158.925455,39.265859 158.925455,38.9628287 158.849091,38.8113135 C158.849091,38.6597984 158.772727,38.5840408 158.696364,38.5082832 C158.62,38.4325256 158.390909,38.4325256 158.161818,38.4325256 L158.009091,38.4325256 L158.009091,38.2052529 L160.834545,38.2052529 L160.834545,38.4325256 L160.605455,38.4325256 C160.3,38.4325256 160.147273,38.4325256 160.070909,38.5082832 C159.994545,38.5840408 159.918182,38.6597984 159.918182,38.7355559 C159.918182,38.8870711 159.841818,39.1901014 159.841818,39.6446469 L159.841818,42.6749499 C159.841818,43.1294953 159.841818,43.3567681 159.841818,43.4325256 C159.841818,43.5082832 159.918182,43.5840408 159.994545,43.6597984 C160.070909,43.7355559 160.3,43.7355559 160.681818,43.7355559 L161.14,43.7355559 C161.521818,43.7355559 161.750909,43.7355559 161.903636,43.6597984 C162.056364,43.5840408 162.209091,43.4325256 162.361818,43.2810105 C162.514545,43.0537378 162.667273,42.7507075 162.82,42.296162 L162.972727,42.296162 L162.972727,42.3719196 Z" id="XMLID_6_"></path>
                        <path d="M168.005303,38.4355161 L168.005303,38.2052529 L170.418182,38.2052529 L170.418182,38.4355161 L170.280303,38.4355161 C170.004545,38.4355161 169.866667,38.4355161 169.797727,38.5122705 C169.728788,38.5890248 169.659848,38.6657792 169.659848,38.7425336 C169.659848,38.8960424 169.590909,39.2030599 169.590909,39.6635863 L169.590909,42.5034985 C169.590909,42.9640248 169.590909,43.2710424 169.590909,43.4245512 C169.590909,43.5780599 169.659848,43.6548143 169.728788,43.7315687 C169.797727,43.8083231 170.004545,43.8083231 170.211364,43.8083231 L170.349242,43.8083231 L170.349242,44.0385863 L167.936364,44.0385863 L167.936364,43.8083231 L168.074242,43.8083231 C168.281061,43.8083231 168.418939,43.8083231 168.556818,43.7315687 C168.625758,43.6548143 168.694697,43.5780599 168.694697,43.4245512 C168.694697,43.2710424 168.694697,42.9640248 168.694697,42.5034985 L168.694697,39.6635863 C168.694697,39.2030599 168.694697,38.8960424 168.694697,38.7425336 C168.694697,38.5890248 168.625758,38.5122705 168.556818,38.4355161 C168.487879,38.3587617 168.281061,38.3587617 168.005303,38.3587617 L168.005303,38.3587617 L168.005303,38.4355161 Z" id="XMLID_5_"></path>
                        <path d="M177.036364,43.8909069 L177.036364,42.118755 L177.238961,42.118755 C177.441558,43.3001896 177.981818,43.8909069 178.792208,43.8909069 C179.12987,43.8909069 179.4,43.7432276 179.602597,43.5217086 C179.805195,43.3001896 179.872727,43.0786706 179.872727,42.783312 C179.872727,42.4879533 179.805195,42.2664344 179.602597,42.0449154 C179.4,41.8233964 179.12987,41.6757171 178.657143,41.4541981 C178.251948,41.2326791 177.914286,41.0849998 177.711688,40.9373204 C177.509091,40.7896411 177.306494,40.5681221 177.238961,40.3466031 C177.103896,40.1250841 177.036364,39.9035652 177.036364,39.6082065 C177.036364,39.2390082 177.171429,38.8698099 177.441558,38.5744512 C177.711688,38.2790926 177.981818,38.2052529 178.387013,38.2052529 C178.58961,38.2052529 178.792208,38.2790926 178.994805,38.3529322 C179.197403,38.4267719 179.4,38.5744512 179.602597,38.8698099 C179.737662,38.7221306 179.805195,38.5744512 179.805195,38.3529322 L179.94026,38.3529322 L179.94026,39.8297255 L179.805195,39.8297255 C179.737662,39.3866875 179.535065,39.0913289 179.264935,38.7959702 C178.994805,38.5744512 178.724675,38.4267719 178.387013,38.4267719 C178.049351,38.4267719 177.846753,38.5006116 177.711688,38.7221306 C177.576623,38.8698099 177.509091,39.0913289 177.509091,39.3128479 C177.509091,39.5343668 177.576623,39.7558858 177.779221,39.9774048 C177.981818,40.1250841 178.251948,40.3466031 178.724675,40.5681221 C179.197403,40.7896411 179.467532,40.9373204 179.67013,41.0849998 C179.872727,41.2326791 180.007792,41.3803584 180.142857,41.6018774 C180.277922,41.8233964 180.345455,42.118755 180.345455,42.4141137 C180.345455,42.9309913 180.21039,43.3001896 179.94026,43.5955483 C179.67013,43.8909069 179.264935,44.0385863 178.792208,44.0385863 C178.251948,44.0385863 177.779221,43.8170673 177.374026,43.3001896 C177.306494,43.447869 177.238961,43.5955483 177.171429,43.8170673 L177.036364,43.8170673 L177.036364,43.8909069 Z" id="XMLID_4_"></path>
                    </g>
                </g>
            </g>
        </g>
    </g>
</svg>