<svg width="30" height="30" viewBox="0 0 30 30" xmlns="http://www.w3.org/2000/svg"><path d="M14.999 0c4.023 0 7.295 3.12 7.295 6.955 0 1.508-1.077 4.056-2.361 6.545h2.401a1.49 1.49 0 011.383.924l.176.421.004.005v.004l3.517 8.382c.03.047.051.098.064.152l2.483 5.919A.5.5 0 0129.5 30H.496a.504.504 0 01-.147-.026c-.014-.004-.026-.01-.04-.015a.493.493 0 01-.1-.055l-.03-.022a.497.497 0 01-.098-.105l-.011-.024a.495.495 0 01-.052-.124c-.002-.007-.007-.013-.008-.02v-.02a.497.497 0 01-.004-.172c.001-.009.005-.016.007-.025a.497.497 0 01.024-.085l4.395-10.48a.392.392 0 01.022-.046l1.828-4.36a1.49 1.49 0 011.381-.921h2.402c-1.284-2.49-2.362-5.037-2.362-6.545C7.703 3.12 10.976 0 15 0zm8.168 15.698a6.28 6.28 0 00-2.608 2.272c1.239.817 1.94 1.886 1.94 3.03 0 2.412-3.143 4.387-7.156 4.495-.11.005-.227.005-.344.005-.987.001-1.97-.116-2.93-.35-1.675 1.684-5.135 3.014-7.82 3.85h12.717c.51-.071 7.54-1.136 9.48-5.486zm3.78 9.011c-1.343 2.202-3.792 3.521-5.92 4.291h7.72zM22.334 14.5h-2.93a80.066 80.066 0 01-2.845 4.836c.88.41 1.44 1.118 1.44 1.664 0 .796-1.196 2-3 2a6.16 6.16 0 01-.32-.01c-1.643-.137-2.68-1.27-2.68-1.99 0-.546.56-1.254 1.44-1.664a80.868 80.868 0 01-2.506-4.214 17.308 17.308 0 00-5.612 4.17l-3.978 9.487c2.127-.544 7.268-2.009 9.625-3.973-2.101-.791-3.47-2.185-3.47-3.806 0-1.384 1.015-2.665 2.784-3.514a.5.5 0 11.433.902c-1.409.676-2.217 1.628-2.217 2.612 0 1.888 2.962 3.491 6.467 3.5.133 0 .24 0 .342-.004 3.418-.093 6.192-1.66 6.192-3.496 0-.984-.808-1.936-2.217-2.613a.497.497 0 01.403-.909 7.293 7.293 0 013.085-2.71.484.484 0 00-.436-.268zm-6.327 5.679a1.231 1.231 0 01-2.016 0 1.68 1.68 0 00-.993.84 2.08 2.08 0 001.747.973c.071.003.163.008.254.008 1.345 0 1.969-.837 2.001-1.017a1.795 1.795 0 00-.993-.804zM15 1c-3.472 0-6.295 2.671-6.295 5.955 0 1.395 1.205 4.128 2.643 6.831l.014.028c1.173 2.202 2.497 4.381 3.451 5.798a.235.235 0 00.373 0c.955-1.417 2.28-3.596 3.452-5.798.004-.01.01-.018.014-.027 1.438-2.704 2.643-5.437 2.643-6.832C21.294 3.67 18.47 1 15 1zM9.915 14.5H7.663a.487.487 0 00-.457.306l-.883 2.104a17.582 17.582 0 013.592-2.41zM15 4a3 3 0 110 6 3 3 0 010-6zm0 1a2 2 0 100 4 2 2 0 000-4z" fill="#C1A01E" fill-rule="evenodd"/></svg>