<svg width="42" height="40" viewBox="0 0 42 40" xmlns="http://www.w3.org/2000/svg"><path d="M17.804 28.499a2.278 2.278 0 00-2.282 2.273 2.278 2.278 0 002.282 2.272 2.278 2.278 0 002.283-2.272 2.278 2.278 0 00-2.283-2.273zm0 3.03a.76.76 0 01-.76-.757.76.76 0 01.76-.758c.42 0 .761.34.761.758a.76.76 0 01-.76.757zm16.436-3.03a2.278 2.278 0 00-2.283 2.273 2.278 2.278 0 002.282 2.272 2.278 2.278 0 002.283-2.272 2.278 2.278 0 00-2.283-2.273zm0 3.03a.76.76 0 01-.762-.757.76.76 0 01.761-.758c.42 0 .761.34.761.758a.76.76 0 01-.76.757z"/><path d="M39.916 20.638h-1.574c-.785.005-1.5.448-1.855 1.148a7.68 7.68 0 00-7.46-6.014h-6.011a7.68 7.68 0 00-7.46 6.014 2.092 2.092 0 00-1.854-1.148h-1.574a2.085 2.085 0 00-2.085 2.085v.696c0 1.151.934 2.085 2.085 2.085h1.101l.407.407a3.476 3.476 0 00-1.842 2.577l-.595 4.171a3.474 3.474 0 003.013 3.94v.723c0 1.152.933 2.086 2.084 2.086h2.779a2.085 2.085 0 002.084-2.086v-.695h9.726v.695c0 1.152.933 2.086 2.084 2.086h2.779a2.085 2.085 0 002.084-2.086V36.6a3.469 3.469 0 003.013-3.94l-.596-4.171a3.476 3.476 0 00-1.841-2.577l.406-.407h1.102A2.085 2.085 0 0042 23.42v-.696a2.085 2.085 0 00-2.084-2.085zm-23.09 1.896a6.285 6.285 0 016.19-5.372h6.012a6.285 6.285 0 016.19 5.372l.423 2.97H16.402l.424-2.97zm-4.698 1.58a.695.695 0 01-.695-.695v-.696c0-.383.31-.695.695-.695h1.574c.345 0 .638.255.687.597l.347 2.419-.726-.726a.694.694 0 00-.493-.204h-1.39zm7.641 13.208a.695.695 0 01-.694.696h-2.78a.695.695 0 01-.694-.696v-.695h4.168v.695zm16.673 0a.695.695 0 01-.694.696h-2.78a.695.695 0 01-.694-.696v-.695h4.168v.695zm3.028-4.465a2.087 2.087 0 01-2.063 2.38h-22.77a2.084 2.084 0 01-2.063-2.38l.595-4.172a2.095 2.095 0 012.063-1.79h21.58a2.095 2.095 0 012.063 1.79l.595 4.172zm1.14-9.438a.695.695 0 01-.694.695h-1.39a.694.694 0 00-.49.204l-.727.726.348-2.42a.695.695 0 01.685-.596h1.574c.384 0 .695.312.695.695v.696z"/><path d="M30.326 29.408h-8.608a.714.714 0 00-.582.302.736.736 0 00-.1.655l.718 2.182a.718.718 0 00.68.497h7.175c.308 0 .583-.2.68-.497l.718-2.182a.736.736 0 00-.099-.655.714.714 0 00-.582-.302zM29.09 31.59h-6.139l-.24-.727h6.619l-.24.727zM7.812 33.254V14.278h4.26c.393 0 .71-.312.71-.698V1.015a.704.704 0 00-.71-.698H.71a.704.704 0 00-.71.698V13.58c0 .386.318.698.71.698h3.55v18.976a2.097 2.097 0 00-1.42 1.966v3.49c0 .385.319.698.71.698h4.972c.392 0 .71-.313.71-.698v-3.49a2.097 2.097 0 00-1.42-1.966zM1.42 1.714h9.942v11.168H1.42V1.713zm4.971 12.564v18.847h-.71V14.278h.71zm1.42 23.734h-3.55V35.22c0-.386.318-.698.71-.698h2.13c.393 0 .71.312.71.698v2.792z"/><path d="M5.935 10.544V8.5h1.37a2.733 2.733 0 002.738-2.727 2.733 2.733 0 00-2.739-2.728H5.25a.683.683 0 00-.685.682v6.818c0 .377.307.682.685.682a.683.683 0 00.685-.682zm0-6.136h1.37c.756 0 1.369.61 1.369 1.364 0 .753-.613 1.363-1.37 1.363h-1.37V4.408zm16.7 14.281a.653.653 0 00-.92 0l-3.255 3.24a.646.646 0 00.287 1.094.65.65 0 00.633-.177l3.255-3.24a.646.646 0 000-.917zm2.738-.008l-3.26 3.247a.647.647 0 00.287 1.095c.228.06.47-.008.634-.177l3.261-3.247a.647.647 0 00-.008-.91.654.654 0 00-.914-.008z"/></svg>