<svg width="41" height="41" viewBox="0 0 41 41" xmlns="http://www.w3.org/2000/svg"><path d="M20.872.758a19.84 19.84 0 0114.121 5.85A19.971 19.971 0 116.75 34.85 19.971 19.971 0 0120.872.758zm13.18 6.79C26.772.27 14.97.27 7.692 7.549c-7.28 7.28-7.28 19.082 0 26.361 7.279 7.28 19.08 7.28 26.36 0 7.28-7.28 7.28-19.081 0-26.36zM20.9 3.543c9.492 0 17.215 7.723 17.215 17.216 0 9.492-7.723 17.215-17.215 17.215S3.685 30.25 3.685 20.758c0-9.493 7.723-17.216 17.215-17.216zm0 1.325c-8.762 0-15.89 7.128-15.89 15.89 0 8.763 7.128 15.892 15.89 15.892s15.89-7.13 15.89-15.891c0-8.763-7.128-15.891-15.89-15.891zm.127 27.79c.35 0 .632.283.632.632v1.266a.633.633 0 01-1.265 0V33.29c0-.35.283-.633.633-.633zm-9.62-3.35a.667.667 0 11.943.944l-.944.944a.667.667 0 01-.943-.944zm18.043 0c.26-.26.683-.26.944 0l.943.944a.667.667 0 01-.943.944l-.944-.944a.667.667 0 010-.943zm-1.875-15.891c.27 0 .512.16.616.405a.653.653 0 01-.143.717l-4.823 4.803a2.612 2.612 0 01-.606 3.342c-1 .82-2.45.807-3.435-.03a2.611 2.611 0 01-.547-3.352l-2.846-2.785a.653.653 0 01.287-1.113.67.67 0 01.65.178l2.858 2.797a2.682 2.682 0 012.706.023l4.811-4.79a.668.668 0 01.472-.195zm-6.656 5.922c-.735 0-1.331.59-1.331 1.317 0 .726.596 1.316 1.33 1.316a1.326 1.326 0 001.332-1.316c0-.727-.596-1.317-1.331-1.317zm13.778.913a.633.633 0 010 1.266h-1.265a.633.633 0 010-1.266zm-26.329 0a.633.633 0 010 1.266H7.103a.633.633 0 010-1.266zm22.026-9.93a.667.667 0 11.943.943l-.943.944a.667.667 0 01-.944-.944zm-19.632-.173a.667.667 0 01.644.172l.944.944a.667.667 0 11-.944.944l-.943-.944a.667.667 0 01.299-1.116zm10.265-3.82c.35 0 .632.283.632.632v1.266a.633.633 0 01-1.265 0V6.96c0-.35.283-.633.633-.633z" fill-rule="evenodd"/></svg>