<svg width="31" height="31" viewBox="0 0 31 31" xmlns="http://www.w3.org/2000/svg"><path d="M15.5 0c1.968 0 3.882.369 5.687 1.096a15.179 15.179 0 019.557 14.148c0 8.405-6.839 15.243-15.244 15.243S.256 23.65.256 15.244c0-.634.04-1.272.117-1.894C1.315 5.74 7.819 0 15.5 0zm0 1.142c-7.106 0-13.121 5.31-13.993 12.35a14.188 14.188 0 00-.108 1.752c0 7.775 6.325 14.1 14.1 14.1 7.776 0 14.102-6.325 14.103-14.1 0-5.79-3.47-10.928-8.841-13.088A14.012 14.012 0 0015.5 1.142zm5.141 20.422c.24 0 .436.25.436.558 0 .308-.195.557-.436.557H10.36c-.24 0-.436-.25-.436-.557 0-.308.195-.558.436-.558zM15.5 7.754c.25 0 .454.203.454.454v9.896l3.788-3.789a.454.454 0 01.642.641l-4.562 4.563a.493.493 0 01-.147.098l-.012.003a.45.45 0 01-.33 0l-.003-.002a.454.454 0 01-.157-.106l-4.556-4.556a.454.454 0 11.642-.642l3.787 3.788V8.208c0-.25.203-.453.454-.453z" fill="#C1A01E" fill-rule="evenodd"/></svg>