<svg height="34" viewBox="0 0 34 34" width="34" xmlns="http://www.w3.org/2000/svg"><g fill="none" fill-rule="evenodd" transform="translate(5 5)"><path d="m16.6883776 3c2.3774988 0 4.3116224 1.93427978 4.3116224 4.31175547v9.37648903c0 2.3775632-1.9341236 4.3117555-4.3116224 4.3117555h-9.3766677c-2.3774988 0-4.3117099-1.9341923-4.3117099-4.3117555v-9.37648903c0-2.37747569 1.9342111-4.31175547 4.3117099-4.31175547zm0 1.13563482h-9.3766677c-1.75127947 0-3.17615153 1.42477072-3.17615153 3.17612065v9.37640153c0 1.7514375 1.42478457 3.1764706 3.17615153 3.1764706h9.3766677c1.7514544 0 3.176414-1.4250331 3.176414-3.1764706v-9.37640153c0-1.75126245-1.4249596-3.17612065-3.176414-3.17612065zm-4.1885561 3.86436518c2.4813802 0 4.5001785 2.0186199 4.5001785 4.4998215 0 2.4813802-2.0187983 4.5001785-4.5001785 4.5001785-2.4812016 0-4.4998215-2.0187983-4.4998215-4.5001785 0-2.4812016 2.0186199-4.4998215 4.4998215-4.4998215zm0 1.15841761c-1.8428316 0-3.34202852 1.49892919-3.34202852 3.34140389 0 1.8429209 1.49919692 3.3422963 3.34202852 3.3422963 1.8426532 0 3.3417609-1.4993754 3.3416717-3.3422963 0-1.8424747-1.4990185-3.34140389-3.3416717-3.34140389zm5.0003051-2.15841761c.2756264 0 .4998734.22435289.4998734.50003164 0 .27567876-.224247.49996836-.4998734.49996836-.275753 0-.5001266-.2242896-.5001266-.49996836 0-.27567875.2243736-.50003164.5001266-.50003164z" fill="#fff"/><circle cx="12" cy="12" r="16" stroke="#fff"/></g></svg>