<svg width="25" height="25" viewBox="0 0 25 25" xmlns="http://www.w3.org/2000/svg"><path d="M4.395.595C5.8.58 7.001 1.582 7.215 2.947l.036-.001a3.128 3.128 0 012.563 1.438c.555.872.629 1.96.197 2.898 1.707.341 2.928 1.825 2.914 3.54a3.584 3.584 0 01-.714 2.16 4.125 4.125 0 012.295 3.715c.027 2.254-1.803 4.104-4.092 4.136a4.034 4.034 0 01-1.954-.505v3.283h6.853v-1.19h-.403a.4.4 0 01-.403-.397.4.4 0 01.403-.397h.403v-.397h-.403a.4.4 0 01-.403-.397.4.4 0 01.403-.396h.403v-1.19h-.403a.4.4 0 01-.403-.398.4.4 0 01.403-.397h.403a.4.4 0 01.403-.396.4.4 0 01.403.396h6.45a.4.4 0 01.403-.396.4.4 0 01.403.396h.403a.4.4 0 01.403.397.4.4 0 01-.403.397h-.403v1.19h.403a.4.4 0 01.403.397.4.4 0 01-.403.397h-.403v.397h.403a.4.4 0 01.403.397.4.4 0 01-.403.397h-.403v1.19h.403a.4.4 0 01.403.397.4.4 0 01-.403.397H.398a.4.4 0 01-.403-.397.4.4 0 01.403-.397h5.643v-3.283a4.034 4.034 0 01-1.953.505c-2.29-.032-4.12-1.882-4.093-4.136a4.125 4.125 0 012.295-3.716 3.585 3.585 0 01-.714-2.16C1.562 9.107 2.783 7.622 4.49 7.28a3.037 3.037 0 01-.129-.335H2.01A2.004 2.004 0 01.005 5.148 1.99 1.99 0 011.631 3.01C1.813 1.64 2.991.61 4.395.594zM7.251 19.32a4.12 4.12 0 01-.403.426v3.866h.806v-3.866a4.115 4.115 0 01-.403-.426zm15.317 3.102h-6.45v1.19h6.45v-1.19zm0-1.19h-6.45v.396h6.45v-.397zm0-1.985h-6.45v1.19h6.45v-1.19zM7.251 3.74c-1.254.023-2.252 1.04-2.233 2.275.001.493.163.972.462 1.368.09.12.103.28.034.414a.418.418 0 01-.404.215c-1.537.043-2.754 1.296-2.728 2.81a2.806 2.806 0 00.86 2.034.393.393 0 01-.156.66 3.326 3.326 0 00-2.285 3.182c-.027 1.816 1.443 3.31 3.287 3.343a3.24 3.24 0 002.71-1.471l-2.654-2.614a.392.392 0 01.002-.56.408.408 0 01.568 0l2.134 2.1v-4.037L4.95 11.59a.392.392 0 01.002-.56.408.408 0 01.568-.001l1.328 1.307v-1.82a.4.4 0 01.403-.397.4.4 0 01.403.397v1.82l1.327-1.307a.408.408 0 01.568.002.392.392 0 01.002.56l-1.897 1.867v4.036l2.133-2.1a.408.408 0 01.568.003.392.392 0 01.002.558L7.703 18.57a3.24 3.24 0 002.71 1.47c1.64-.058 3.004-1.257 3.249-2.853.245-1.597-.699-3.139-2.247-3.672a.392.392 0 01-.156-.66 2.806 2.806 0 00.86-2.033c.023-1.525-1.21-2.78-2.76-2.808a.413.413 0 01-.366-.218.39.39 0 01.029-.413c.299-.396.46-.875.461-1.368.02-1.235-.979-2.252-2.232-2.275zm12.093 1.023c1.352 0 2.494.969 2.67 2.265.975.18 1.647 1.048 1.553 2.003-.093.955-.923 1.684-1.915 1.684h-4.617c-.992 0-1.822-.73-1.915-1.684-.094-.955.579-1.822 1.553-2.003.176-1.296 1.319-2.265 2.67-2.265zm0 .744c-1.063 0-1.924.833-1.924 1.86 0 .099-.04.193-.113.263a.391.391 0 01-.272.11c-.638 0-1.154.499-1.154 1.115 0 .617.517 1.116 1.154 1.116h4.617c.638 0 1.155-.5 1.155-1.116 0-.616-.517-1.116-1.155-1.116-.102 0-.2-.04-.272-.109a.366.366 0 01-.113-.263c0-1.027-.86-1.86-1.923-1.86zM4.426 1.389l-.157.006a1.992 1.992 0 00-1.855 1.978.394.394 0 01-.118.28.406.406 0 01-.285.117A1.2 1.2 0 00.8 4.96a1.2 1.2 0 001.21 1.19h2.208c-.002-.045-.007-.09-.007-.136a3.067 3.067 0 012.201-2.947c-.16-1.024-1.095-1.752-2.144-1.672z" fill-rule="evenodd"/></svg>