<svg height="34" viewBox="0 0 34 34" width="34" xmlns="http://www.w3.org/2000/svg"><g fill="none" fill-rule="evenodd" transform="translate(5 5)"><path d="m9.36997009 21.2956542h3.75610601c.3222792 0 .5835748-.2618069.5835748-.5847168v-8.4715962h1.9514011c.299155 0 .5498733-.2266508.580511-.5247833l.3289903-3.19927792c.0169236-.16459778-.0365464-.32875702-.1472797-.45162064-.1106604-.1229367-.2680797-.19302963-.4332313-.19302963h-2.2803914v-1.2958786c0-.26765411.0845454-.28768066.2135884-.28768066h2.0193146c.3222791 0 .5835747-.26180694.5835747-.58471679v-3.10630798c0-.32203277-.2598366-.58340118-.5812404-.58471679l-2.7848918-.01132889c-1.951474 0-2.9929361.86026458-3.52296791 1.5818782-.7401187 1.00768631-.85063317 2.18837569-.85063317 2.80247451v1.48620391h-1.20282055c-.32227917 0-.58357477.26180695-.58357477.5847168v3.19927798c0 .3229098.2612956.5847168.58357477.5847168h1.20282055v8.4716692c0 .3229099.26122265.5847168.58357477.5847168zm-1.2028935-10.2257465v-2.0298444h1.20282055c.32227917 0 .58357477-.26180695.58357477-.5847168v-2.0709207c0-.37896958.06076469-1.34309448.62347669-2.10936584.5387854-.73360031 1.4078741-1.10555328 2.5805676-1.10555328l2.201317.00891693v1.93928634h-1.4357398c-.6872322 0-1.3807379.45052429-1.3807379 1.45711425v1.88059539c0 .32290985.2612956.5847168.5835748.5847168h2.2172193l-.2087738 2.02984431h-2.0084455c-.3222792 0-.5835748.261807-.5835748.5847168v8.4715231h-2.58895654v-8.4715962c0-.3229098-.2612956-.5847167-.58357477-.5847167z" fill="#fff"/><circle cx="12" cy="12" r="16" stroke="#fff"/></g></svg>