<svg width="44" height="43" viewBox="0 0 44 43" xmlns="http://www.w3.org/2000/svg"><path d="M22.398.476c5.766 0 10.457 4.367 10.457 9.736 0 2.112-1.544 5.68-3.385 9.164h3.443a2.138 2.138 0 011.981 1.294l.253.59.005.006v.006l5.041 11.735a.674.674 0 01.092.213l3.559 8.285a.686.686 0 01-.064.659.721.721 0 01-.597.312H1.611a.738.738 0 01-.211-.036.712.712 0 01-.2-.099c-.015-.01-.03-.019-.044-.03a.703.703 0 01-.14-.147c-.009-.016-.012-.026-.016-.034a.684.684 0 01-.074-.173c-.003-.01-.01-.019-.012-.03V41.9a.68.68 0 01-.005-.24l.01-.035a.675.675 0 01.034-.12l6.3-14.672a.544.544 0 01.031-.064l2.62-6.102a2.135 2.135 0 011.98-1.291h3.443c-1.841-3.485-3.385-7.052-3.385-9.164 0-5.369 4.69-9.736 10.456-9.736zm11.707 21.977a8.94 8.94 0 00-3.737 3.181c1.775 1.144 2.781 2.64 2.781 4.242 0 3.377-4.506 6.141-10.258 6.293-.156.007-.325.007-.493.007a18.05 18.05 0 01-4.198-.489c-2.402 2.357-7.36 4.218-11.21 5.389h18.228c.73-.1 10.808-1.59 13.588-7.68zm5.42 12.616c-1.925 3.082-5.436 4.93-8.487 6.007h11.067zm-6.612-14.293h-4.2a111.536 111.536 0 01-4.078 6.77c1.26.574 2.064 1.565 2.064 2.33 0 1.115-1.715 2.8-4.3 2.8a9.04 9.04 0 01-.46-.014c-2.354-.192-3.84-1.778-3.84-2.786 0-.765.803-1.756 2.063-2.33a112.684 112.684 0 01-3.59-5.899 24.775 24.775 0 00-8.045 5.837L2.824 40.767c3.05-.762 10.418-2.813 13.797-5.563-3.012-1.107-4.973-3.059-4.973-5.328 0-1.938 1.454-3.73 3.99-4.919a.731.731 0 01.715.053.69.69 0 01.31.631.7.7 0 01-.405.578c-2.02.946-3.177 2.279-3.177 3.657 0 2.644 4.244 4.888 9.27 4.9.189-.001.342 0 .49-.006 4.899-.13 8.875-2.324 8.875-4.894 0-1.378-1.159-2.711-3.179-3.658a.69.69 0 01-.346-.91.72.72 0 01.923-.362 10.381 10.381 0 014.423-3.794.696.696 0 00-.624-.376zm-9.07 7.95c-.33.46-.869.735-1.445.735a1.777 1.777 0 01-1.445-.734 2.398 2.398 0 00-1.423 1.174 2.998 2.998 0 002.505 1.364c.102.004.233.011.363.011 1.928 0 2.822-1.172 2.869-1.424a2.562 2.562 0 00-1.424-1.125zm-1.445-26.85c-4.975 0-9.023 3.74-9.023 8.336 0 1.954 1.728 5.78 3.788 9.565.007.013.015.025.021.038 1.68 3.083 3.579 6.134 4.947 8.117a.34.34 0 00.535 0c1.368-1.983 3.266-5.034 4.947-8.117.005-.013.014-.025.02-.038 2.061-3.784 3.789-7.61 3.789-9.565 0-4.596-4.048-8.336-9.024-8.336zm-7.287 18.9h-3.227a.698.698 0 00-.656.429L9.963 24.15a25.249 25.249 0 015.148-3.374zm7.289-14.7c2.375 0 4.3 1.88 4.3 4.2 0 2.32-1.925 4.2-4.3 4.2-2.374-.003-4.297-1.881-4.3-4.2 0-2.32 1.925-4.2 4.3-4.2zm0 1.4c-1.583.001-2.865 1.254-2.867 2.8 0 1.546 1.284 2.8 2.867 2.8s2.867-1.254 2.867-2.8c0-1.546-1.284-2.8-2.867-2.8z" fill-rule="evenodd"/></svg>