<svg width="29" height="26" viewBox="0 0 29 26" xmlns="http://www.w3.org/2000/svg"><path d="M10.928 3.643c.345 0 .624.283.624.633 0 .35-.28.633-.624.633H3.563c-1.034 0-1.872.85-1.873 1.898v15.077c.001 1.048.839 1.897 1.873 1.898h20.432c1.034-.001 1.872-.85 1.873-1.898v-5.788c0-.35.28-.633.624-.633.345 0 .624.283.624.633v5.788c-.002 1.746-1.398 3.162-3.12 3.164H3.562C1.84 25.046.443 23.63.442 21.884V6.807C.444 5.06 1.84 3.645 3.562 3.643zM21.124.002c.232-.1.5-.046.677.138l6.574 6.788c.243.252.244.66.002.913l-6.573 6.857a.606.606 0 01-.679.141.646.646 0 01-.385-.596v-3.568a6.315 6.315 0 00-2.496.38c-1.774.645-3.29 2.037-4.508 4.137l-.396.685a.614.614 0 01-.647.303.635.635 0 01-.499-.524l-.132-.789a10.4 10.4 0 01.106-3.311 9.861 9.861 0 013.273-5.689c.257-.24 1.94-1.686 5.3-1.824V.598c0-.26.15-.496.383-.596zm.86 2.15v2.526a.635.635 0 01-.622.645c-3.457-.026-5.037 1.454-5.08 1.496a.58.58 0 01-.04.036c-1.515 1.302-2.475 2.968-2.853 4.952a9.533 9.533 0 00-.169 1.841c1.275-1.88 2.824-3.161 4.613-3.812 1.677-.61 3.097-.468 3.629-.38a.64.64 0 01.523.638v2.584l5.072-5.29-5.072-5.237z" fill="#C1A01E" fill-rule="evenodd"/></svg>