<svg width="24" height="24" viewBox="0 0 24 24" xmlns="http://www.w3.org/2000/svg"><path d="M11.387.18c.376-.228.85-.228 1.227 0l10.594 6.389c.523.318.726.97.476 1.525a1.23 1.23 0 01-1.466.668v13.404c0 .644-.528 1.166-1.178 1.166H2.962a1.174 1.174 0 01-1.18-1.166V8.767a1.232 1.232 0 01-1.466-.67A1.206 1.206 0 01.79 6.572zm-1.744 14.6H4.927v7.775h4.716V14.78zm2.562-11.994a.396.396 0 00-.409 0L2.57 8.343v13.823a.39.39 0 00.393.389H4.14V14.78c0-.43.352-.777.786-.778h4.716c.434 0 .785.348.786.778v7.774h10.61a.391.391 0 00.393-.389V8.343zM7.21 18.473c.204 0 .368.163.368.365a.366.366 0 01-.368.364v.364a.366.366 0 01-.368.365.366.366 0 01-.369-.365v-.364a.366.366 0 01-.368-.364c0-.202.165-.365.368-.365zM18.288 14.1c.434 0 .786.342.786.764v3.818h.393c.218 0 .393.17.393.381s-.175.382-.393.382h-7.074a.388.388 0 01-.393-.382c0-.21.176-.381.393-.381h.393v-3.818c0-.422.352-.763.786-.764zm-2.75 3.054h-1.966v1.528h1.965v-1.528zm2.75 0h-1.965v1.528h1.965v-1.528zm-9.973-1.596c.407 0 .737.363.737.81v.81c0 .446-.33.809-.737.81H6.842c-.407-.001-.737-.364-.737-.81v-.81c0-.447.33-.81.737-.81zm0 .81H6.842v.81h1.474v-.81zm7.222-1.504h-1.965v1.527h1.965v-1.527zm2.751 0h-1.965v1.527h1.965v-1.527zm-6.285-9.996c1.188 0 2.198.849 2.38 1.998a2.386 2.386 0 012 1.915 2.34 2.34 0 01-1.199 2.476 2.451 2.451 0 01-2.782-.304v1.389h.402c.222 0 .402.176.402.393 0 .217-.18.393-.402.393h-1.607a.398.398 0 01-.402-.393c0-.217.18-.393.402-.393h.402v-1.39a2.452 2.452 0 01-2.784.304 2.344 2.344 0 01-1.198-2.478A2.388 2.388 0 019.62 6.863c.182-1.149 1.194-1.996 2.382-1.995zm0 .787a1.597 1.597 0 00-1.59 1.33.798.798 0 01-.667.655 1.592 1.592 0 00-1.342 1.307c-.11.674.236 1.341.858 1.652.621.31 1.376.192 1.87-.291a1.228 1.228 0 011.742.003c.493.48 1.246.595 1.865.284.62-.31.965-.975.855-1.648a1.591 1.591 0 00-1.336-1.306.798.798 0 01-.67-.652 1.597 1.597 0 00-1.586-1.334zm.202-4.811a.395.395 0 00-.409 0L1.202 7.233a.434.434 0 00-.136.6.445.445 0 00.605.141l9.716-5.852.13-.067a1.187 1.187 0 011.097.067l9.713 5.85a.445.445 0 00.624-.164.434.434 0 00-.154-.577z" fill-rule="evenodd"/></svg>