<svg width="24" height="24" viewBox="0 0 24 24" xmlns="http://www.w3.org/2000/svg"><path d="M5.137.196C6.8.1 8.25 1.3 8.44 2.93a2.334 2.334 0 011.988 2.29v.387a.39.39 0 01-.393.387h-3.93a.39.39 0 01-.393-.387V5.22a2.334 2.334 0 011.935-2.282C7.464 1.738 6.37.88 5.14.971c-1.23.09-2.18 1.1-2.18 2.315v7.738h11.005v-.387c0-.64.528-1.16 1.18-1.16h5.502c.65 0 1.178.52 1.179 1.16v.387h.786c.65.003 1.176.52 1.179 1.16a1.16 1.16 0 01-.786 1.09v3.166c-.005 2.839-2.234 5.193-5.11 5.398v.406a1.17 1.17 0 01-1.179 1.16 1.17 1.17 0 01-1.179-1.16v-.387H8.463v.387a1.17 1.17 0 01-1.18 1.16 1.17 1.17 0 01-1.178-1.16v-.406C3.229 21.633 1 19.279.995 16.44v-3.165a1.16 1.16 0 01-.786-1.09 1.172 1.172 0 011.18-1.161h.785V3.286c0-1.64 1.3-2.996 2.963-3.09zm2.54 21.661H6.89v.387a.39.39 0 00.393.387.39.39 0 00.393-.387v-.387zm9.432 0h-.786v.387a.39.39 0 00.393.387.39.39 0 00.393-.387v-.387zm-3.145-8.513l-12.183.001v3.095c.003 2.563 2.113 4.64 4.717 4.643h11.004c2.604-.003 4.714-2.08 4.717-4.643v-3.095h-1.966v3.095c0 .276-.15.53-.392.667v.881a.39.39 0 01-.394.387.39.39 0 01-.393-.387v-.774h-.786v.774a.39.39 0 01-.393.387.39.39 0 01-.393-.387v-.774h-.786v.774a.39.39 0 01-.393.387.39.39 0 01-.393-.387v-.774h-.786v.774a.39.39 0 01-.393.387.39.39 0 01-.393-.387v-.881a.77.77 0 01-.393-.667v-3.096zm5.576-3.094h-4.396a.39.39 0 00-.393.387v5.803h4.716v-.773H15.93a.39.39 0 01-.393-.387.39.39 0 01.393-.387h3.537v-4.256a1.14 1.14 0 01.073-.387zm3.072 1.548h-2.359v.773h2.359a.39.39 0 00.393-.387c0-.1-.04-.197-.113-.268a.388.388 0 00-.28-.118zm-8.647 0H1.388a.39.39 0 00-.393.386c0 .101.04.198.114.27a.387.387 0 00.28.117h12.576v-.773zm6.682-1.548a.39.39 0 00-.394.387v.387h.786v-.387a.39.39 0 00-.392-.387zM8.07 8.84c.255 0 .462.17.462.38v.379c0 .21-.207.379-.462.379-.256 0-.463-.17-.463-.38v-.379c0-.21.207-.38.463-.38zm2.183-1.042a.347.347 0 01.485.005l.24.24a.33.33 0 01.085.324.34.34 0 01-.245.235.348.348 0 01-.33-.09l-.24-.24a.33.33 0 01.005-.474zm-4.851.005a.348.348 0 01.484-.005.33.33 0 01.005.474l-.24.24a.348.348 0 01-.484.004.33.33 0 01-.005-.474zM8.07 6.79c.255 0 .462.17.462.379v.38c0 .209-.207.379-.462.379-.256 0-.463-.17-.463-.38v-.38c0-.209.207-.378.463-.378zm1.04-.228c.09.001.177.037.24.1l.24.24a.33.33 0 01.086.325.34.34 0 01-.245.235.347.347 0 01-.33-.09l-.24-.24a.33.33 0 01.005-.474.346.346 0 01.243-.096zm-2.552.1a.348.348 0 01.484-.004.33.33 0 01.005.474l-.24.24a.348.348 0 01-.484.005.33.33 0 01-.005-.475zm1.512-2.99A1.56 1.56 0 006.498 5.22h3.144A1.56 1.56 0 008.07 3.673z" fill-rule="evenodd"/></svg>