<svg height="34" viewBox="0 0 34 34" width="34" xmlns="http://www.w3.org/2000/svg"><g fill="none" fill-rule="evenodd" transform="translate(5 5)"><path d="m21.6549942 6.57776905c.1402737-.21016197.1247903-.48772634-.0378561-.6811265-.1626465-.19332912-.4333925-.25597288-.6645778-.15391044-.014489.00639222-.028978.01278444-.0434671.01903461.1335974-.23970823.2441118-.49355037.3288442-.75825928.072019-.22486408-.0024859-.47075146-.18715-.6177725-.1846641-.14709208-.4409921-.16456414-.6439806-.04417734-.573311.34035017-1.18668.59049903-1.8271804.74561689-.7669243-.69447914-1.7757586-1.08717449-2.8158437-1.08717449-2.3061708 0-4.1824293 1.87519311-4.1824293 4.18015644 0 .06591088.0014916.13167972.0044746.19716446-2.47584867-.30178379-4.76113817-1.55636341-6.35081214-3.50748187-.11775889-.14453519-.29872973-.22216514-.48481434-.20753406-.18587154.01456005-.35277949.11932143-.44660307.28040536-.37032258.63559969-.56606655 1.36260812-.56606655 2.10247202 0 .70683743.17656731 1.38796393.50086591 1.98925871-.08700521.005753-.17294505.03153495-.250575.07727483-.17351325.10213347-.27997922.28836013-.27997922.48971504v.04517169c0 1.25173858.56166302 2.40034948 1.46424442 3.17615178-.01953178.0168329-.03806922.0351572-.05539924.0548311-.13203484.1500041-.17564398.3583194-.11470483.5486655.38829183 1.2132433 1.29620007 2.154391 2.433589 2.6075994-.92339162.4642882-1.94287961.705488-3.00540854.705488-.26790502 0-.53581005-.0153414-.79625748-.0456689-.2626492-.0306116-.51180371.1241511-.60072658.3732346-.0889939.2490835.00568197.5265768.22827326.6694074 1.74791691 1.1211243 3.76956287 1.7136831 5.84639499 1.7136831 4.08065091 0 6.63540791-1.926544 8.06002061-3.5427101 1.7733437-2.0118446 2.7904169-4.6753404 2.7904169-7.30772744 0-.06491654-.0004972-.12812849-.0015626-.19006199.6606714-.51649134 1.2310705-1.13149388 1.6982707-1.83172602zm-2.6083096 1.09420594c-.1561123.11257408-.244609.29659898-.2351627.48886274.0068894.13991858.0102986.2833884.0102986.43871933 0 2.35951024-.9135902 4.74913504-2.5064603 6.55628644-1.2697789 1.4405222-3.550949 3.1577565-7.20751161 3.1577565-1.11863842 0-2.21952067-.1921217-3.25974786-.5637938 1.24364182-.2245089 2.4070968-.7461851 3.42005052-1.54088.18906764-.1482995.26442481-.3995848.1880733-.6275029-.07635151-.2278471-.28779193-.383107-.52813938-.3876526-1.00024031-.0188215-1.90566269-.5230256-2.45226848-1.3164421.28516401-.01733.56862344-.0636381.84590371-.1385691.25448137-.0686808.42820769-.3034174.41975575-.5668478-.00845193-.2634305-.19702241-.4864479-.4553391-.5386511-1.13192003-.2286283-2.01546681-1.0783674-2.32364282-2.1487801.30391453.0802579.61706226.126708.93177253.1372197.25405522.008665.48225745-.1524189.55988741-.3940448.07770098-.24162593-.01441801-.50555357-.2255033-.6464665-.84817651-.56606655-1.35451132-1.51410372-1.35451132-2.53607757 0-.25895592.0328134-.51556802.09680662-.76358614 1.90402912 1.96610467 4.49642925 3.15257164 7.24408933 3.28950719.1794083.00887808.3501515-.06647909.4645012-.20334361.1142787-.13693554.1576748-.31961097.1171197-.49333729-.0522031-.22365666-.0786953-.45725677-.0786953-.69426607 0-1.67831274 1.3664434-3.04376186 3.0460346-3.04376186.8383751 0 1.6489796.35022261 2.2240663.9607506.1338104.14204932.331259.20554537.5225994.16811537.2152758-.04211762.4281367-.09318436.6382276-.15312917-.1053295.08373808-.2167672.16094188-.3335318.23083015-.2298358.13764579-.3323244.41705681-.2459584.67061485.086366.25362907.3378643.41258226.6041358.38118936.0925451-.01086678.1848062-.02336712.2767831-.03757205-.1302592.1097331-.264851.21470755-.4036331.31485233z" fill="#fff"/><circle cx="12" cy="12" r="16" stroke="#fff"/></g></svg>